<svg xmlns="http://www.w3.org/2000/svg" enable-background="new 0 0 64 64" viewBox="0 0 64 64"><path d="M45.86,36.03c-0.06,0-0.12-0.01-0.17-0.03l-24.44-9.17c-0.12-0.05-0.22-0.14-0.28-0.26c-0.05-0.12-0.06-0.26-0.01-0.38
			L31.04,0.4c0.05-0.12,0.14-0.22,0.26-0.27c0.12-0.05,0.26-0.05,0.38,0l25.05,10.24c0.12,0.05,0.22,0.15,0.27,0.27
			c0.05,0.12,0.05,0.26,0,0.38L46.32,35.74C46.24,35.92,46.05,36.03,45.86,36.03z M22.06,26.09l23.54,8.83l10.31-23.84L31.78,1.22
			L22.06,26.09z"/><path d="M44.54 32.93c-.06 0-.12-.01-.17-.03l-19.94-7.48c-.12-.05-.22-.14-.28-.26-.05-.12-.06-.26-.01-.38L32.42 3.6c.05-.12.14-.22.26-.27.12-.05.26-.05.38 0l20.45 8.35c.12.05.22.15.27.27.05.12.05.26 0 .38L45 32.63C44.91 32.82 44.73 32.93 44.54 32.93zM25.24 24.67l19.04 7.14 8.39-19.41L33.15 4.42 25.24 24.67zM63.51 63.91H36.12c-.27 0-.49-.22-.49-.49V36.04c0-.27.22-.49.49-.49h27.38c.27 0 .49.22.49.49v27.38C64 63.69 63.78 63.91 63.51 63.91zM36.62 62.93h26.4v-26.4h-26.4V62.93z"/><path d="M61.06 61.47H38.57c-.27 0-.49-.22-.49-.49V38.48c0-.27.22-.49.49-.49h22.49c.27 0 .49.22.49.49v22.49C61.56 61.25 61.34 61.47 61.06 61.47zM39.06 60.49h21.51V38.98H39.06V60.49zM10.46 63.91c-.07 0-.13-.01-.2-.04-.12-.05-.21-.15-.26-.27L.03 38.05c-.05-.12-.04-.26.01-.38.05-.12.16-.21.28-.26l26.27-9.49c.25-.09.53.04.63.29l9.36 24.84c.09.25-.03.53-.28.63l-25.66 10.2C10.58 63.9 10.52 63.91 10.46 63.91zM1.13 38.16l9.6 24.62 24.75-9.84-9.02-23.94L1.13 38.16z"/><path d="M11.84 60.73c-.07 0-.13-.01-.2-.04-.12-.05-.21-.15-.26-.27L3.22 39.5c-.05-.12-.04-.26.01-.38.05-.12.16-.21.28-.26l21.65-7.82c.25-.09.53.04.63.29l7.66 20.34c.09.25-.03.53-.28.63l-21.15 8.4C11.97 60.72 11.9 60.73 11.84 60.73zM4.32 39.61l7.8 19.99 20.24-8.04-7.32-19.43L4.32 39.61zM41.7 28.5c-.26 0-.48-.21-.49-.48l-.55-15.51L30.49 22.67c-.19.19-.5.19-.7 0-.19-.19-.19-.5 0-.7l10.96-10.94c.14-.14.35-.18.53-.11.18.07.3.24.31.44l.59 16.64c.01.27-.2.5-.47.51C41.71 28.5 41.7 28.5 41.7 28.5z"/><path d="M43.15 21.49c-.07 0-.14-.01-.2-.04l-9.51-4.36c-.25-.11-.36-.41-.24-.65.11-.25.4-.35.65-.24l9.51 4.36c.25.11.36.41.24.65C43.51 21.38 43.33 21.49 43.15 21.49zM15.44 47.7c-.2 0-.39-.12-.46-.32-.1-.25.03-.54.29-.63l4.24-1.61c.68-.26 1.21-.76 1.51-1.42.3-.66.32-1.4.06-2.07-.26-.68-.76-1.21-1.42-1.51-.66-.3-1.39-.32-2.07-.06l-6.31 2.4c-.25.1-.54-.03-.63-.29-.1-.25.03-.54.29-.63l6.31-2.4c.92-.35 1.92-.32 2.82.09.9.4 1.59 1.14 1.94 2.06.35.92.32 1.92-.08 2.83-.4.9-1.14 1.59-2.06 1.94l-4.24 1.61C15.56 47.69 15.5 47.7 15.44 47.7z"/><path d="M15.7,56c-0.2,0-0.39-0.12-0.46-0.32c-0.1-0.25,0.03-0.54,0.29-0.63l7.34-2.79c1.77-0.67,2.66-2.66,1.99-4.43
				c-0.67-1.77-2.66-2.66-4.43-1.99l-1.1,0.42c-0.25,0.1-0.54-0.03-0.64-0.29c-0.1-0.25,0.03-0.54,0.29-0.64l1.1-0.42
				c2.28-0.86,4.84,0.28,5.7,2.56c0.86,2.28-0.28,4.84-2.56,5.7l-7.34,2.79C15.82,55.99,15.76,56,15.7,56z"/><path d="M18.23 55.04c-.2 0-.39-.12-.46-.32l-5.06-13.33c-.1-.25.03-.54.29-.63.25-.1.54.03.63.29l5.06 13.33c.1.25-.03.54-.29.63C18.35 55.03 18.29 55.04 18.23 55.04zM50.54 57.73c-3.96 0-7.18-3.59-7.18-8 0-4.41 3.22-8 7.18-8 2.79 0 5.27 1.74 6.47 4.54.11.25-.01.54-.26.65-.25.11-.54-.01-.65-.26-1.04-2.43-3.17-3.94-5.57-3.94-3.41 0-6.19 3.15-6.19 7.01 0 3.87 2.78 7.01 6.19 7.01 2.21 0 4.27-1.34 5.36-3.51.12-.24.42-.34.66-.22.24.12.34.42.22.66C55.52 56.18 53.13 57.73 50.54 57.73z"/></svg>