<svg xmlns="http://www.w3.org/2000/svg" viewBox="0 0 104.51 104.51"><g data-name="Layer 2"><g data-name="Layer 1"><path fill="#1c75bc" d="M39.36 26.46a1.84 1.84 0 0 1-1.84 1.84H28.31v9.22a1.85 1.85 0 0 1-3.69 0V28.3H15.41a1.84 1.84 0 1 1 0-3.68h9.21V15.4a1.85 1.85 0 0 1 3.69 0v9.22h9.21A1.84 1.84 0 0 1 39.36 26.46zM91 26.46a1.84 1.84 0 0 1-1.84 1.84H67a1.84 1.84 0 1 1 0-3.68H89.12A1.84 1.84 0 0 1 91 26.46zM91 83.59a1.84 1.84 0 0 1-1.84 1.84H67a1.84 1.84 0 1 1 0-3.69H89.12A1.84 1.84 0 0 1 91 83.59zM91 72.53a1.84 1.84 0 0 1-1.84 1.84H67a1.84 1.84 0 1 1 0-3.68H89.12A1.84 1.84 0 0 1 91 72.53zM37 86a1.85 1.85 0 0 1-2.61 2.61l-7.91-7.92-7.91 7.92A1.84 1.84 0 0 1 16 86l7.91-7.91L16 70.15a1.84 1.84 0 1 1 2.6-2.61l7.91 7.91 7.91-7.91A1.85 1.85 0 1 1 37 70.15l-7.91 7.91z"/><path fill="#1c75bc" d="M97.47,0H7A7.05,7.05,0,0,0,0,7.05V97.47a7.05,7.05,0,0,0,7,7H97.47a7.05,7.05,0,0,0,7-7V7.05A7.05,7.05,0,0,0,97.47,0ZM50.41,101.51H7a4,4,0,0,1-4-4V54.1H50.41Zm0-51.09H3V7.05A4.06,4.06,0,0,1,7,3H50.41Zm51.1,47a4,4,0,0,1-4,4H54.1V54.1h47.41Zm0-47H54.1V3H97.47a4.05,4.05,0,0,1,4,4.05Z"/><path fill="#b6ffc7" d="M57,56.77v44.74H97.47a4,4,0,0,0,4-4V56.77ZM92,88.1H69.89A1.84,1.84,0,0,1,68,86.26a1.68,1.68,0,0,1,.21-.83H67a1.84,1.84,0,1,1,0-3.69H89.12a1.85,1.85,0,0,1,1.65,2.67H92a1.85,1.85,0,0,1,0,3.69ZM92,77H69.89A1.84,1.84,0,0,1,68,75.2a1.68,1.68,0,0,1,.21-.83H67a1.84,1.84,0,1,1,0-3.68H89.12A1.84,1.84,0,0,1,91,72.53a1.78,1.78,0,0,1-.2.83H92A1.84,1.84,0,0,1,92,77Z"/><polygon fill="#88ff9c" points="101.51 54.1 101.51 56.77 56.98 56.77 56.98 101.51 54.1 101.51 54.1 54.1 101.51 54.1"/><path fill="#88ff9c" d="M93.84 86.26A1.84 1.84 0 0 1 92 88.1H69.89A1.84 1.84 0 0 1 68 86.26a1.68 1.68 0 0 1 .21-.83H89.12a1.83 1.83 0 0 0 1.65-1H92A1.84 1.84 0 0 1 93.84 86.26zM93.84 75.2A1.84 1.84 0 0 1 92 77H69.89A1.84 1.84 0 0 1 68 75.2a1.68 1.68 0 0 1 .21-.83H89.12a1.83 1.83 0 0 0 1.64-1H92A1.84 1.84 0 0 1 93.84 75.2z"/><path fill="#ffe6ca" d="M5.5,56.43V99.8a3.77,3.77,0,0,0,.3,1.51,3.93,3.93,0,0,0,1.24.2H50.41V56.43Zm34,31.87a1.85,1.85,0,0,1-2.61,2.61l-2-2a1.66,1.66,0,0,1-.53-.36l-5.5-5.5L21,90.91a1.85,1.85,0,0,1-3-2,1.64,1.64,0,0,1-.78.19A1.84,1.84,0,0,1,16,86l7.91-7.91L16,70.15a1.84,1.84,0,1,1,2.6-2.61l7.91,7.91.09-.08,7.82-7.83a1.85,1.85,0,0,1,3,2,1.85,1.85,0,0,1,2.08,3l-7.91,7.91Z"/><path fill="#f9cfa5" d="M5.5,56.43V99.8a3.77,3.77,0,0,0,.3,1.51A4,4,0,0,1,3,97.47V54.1H50.41v2.33Z"/><path fill="#ffe6ca" d="M101.21,5.52A4.18,4.18,0,0,0,100,5.33H56.6V50.42h44.91V7.05A4.09,4.09,0,0,0,101.21,5.52ZM91.62,30.63H69.51a1.84,1.84,0,0,1-1.85-1.84,1.33,1.33,0,0,1,.08-.49H67a1.84,1.84,0,1,1,0-3.68H89.12A1.84,1.84,0,0,1,91,26.46a1.57,1.57,0,0,1-.07.49h.73a1.84,1.84,0,0,1,0,3.68Z"/><path fill="#f9cfa5" d="M101.21,5.52A4.18,4.18,0,0,0,100,5.33H56.6V50.42H54.1V3H97.47A4,4,0,0,1,101.21,5.52Z"/><path fill="#ffe6ca" d="M9.54,5.33a4.06,4.06,0,0,0-4,4v41H50.41V5.33ZM40,30.63H30.81v9.22a1.85,1.85,0,0,1-3.69,0v-.62a1.62,1.62,0,0,1-.66.13,1.85,1.85,0,0,1-1.84-1.84V30.63H17.91a1.84,1.84,0,0,1-1.85-1.84,1.33,1.33,0,0,1,.08-.49h-.73a1.84,1.84,0,1,1,0-3.68h9.21V15.4a1.85,1.85,0,0,1,3.69,0V16a1.75,1.75,0,0,1,.65-.12,1.84,1.84,0,0,1,1.85,1.84v6.89h6.71a1.84,1.84,0,0,1,1.84,1.84,1.57,1.57,0,0,1-.07.49H40a1.84,1.84,0,1,1,0,3.68Z"/><path fill="#f9cfa5" d="M50.41 3V5.33H9.54a4.06 4.06 0 0 0-4 4v41H3V7.05A4.06 4.06 0 0 1 7 3zM28.87 83.08L21 90.91a1.85 1.85 0 0 1-3-2 1.49 1.49 0 0 0 .52-.35l7.91-7.92zM39.48 88.3a1.85 1.85 0 0 1-2.61 2.61l-2-2a1.75 1.75 0 0 0 .78.18A1.84 1.84 0 0 0 37 86l-7.91-7.91L37 70.15a1.82 1.82 0 0 0 .42-.65 1.85 1.85 0 0 1 2.08 3l-7.91 7.91zM93.46 28.79a1.84 1.84 0 0 1-1.84 1.84H69.51a1.84 1.84 0 0 1-1.85-1.84 1.33 1.33 0 0 1 .08-.49H89.12A1.83 1.83 0 0 0 90.89 27h.73A1.84 1.84 0 0 1 93.46 28.79z"/><path fill="#f9cfa5" d="M24.62 28.3v2.33H17.91a1.84 1.84 0 0 1-1.85-1.84 1.33 1.33 0 0 1 .08-.49zM30.81 17.73v6.89h-2.5V16a1.75 1.75 0 0 1 .65-.12A1.84 1.84 0 0 1 30.81 17.73zM41.86 28.79A1.84 1.84 0 0 1 40 30.63H30.81v9.22a1.85 1.85 0 0 1-3.69 0v-.62a1.82 1.82 0 0 0 1.19-1.71V28.3h9.21A1.83 1.83 0 0 0 39.29 27H40A1.84 1.84 0 0 1 41.86 28.79z"/></g></g></svg>