<svg xmlns="http://www.w3.org/2000/svg" viewBox="0 0 48 48"><path fill="#bec6c6" d="M42 12v11.55L37 23v-3.16A4.39 4.39 0 0 0 38.44 17l.56-5a3.21 3.21 0 0 1-2.89-1.79L36 10c-2.29 2.29-4.79 2-7 2l.56 5A4.39 4.39 0 0 0 31 19.84V23l-5 .55V12a8 8 0 1 1 16 0Z"/><path fill="#f8f9f9" d="m39 12-.56 5a4.47 4.47 0 0 1-8.88 0L29 12h2.17A6.84 6.84 0 0 0 36 10l.11.21A3.21 3.21 0 0 0 39 12Z"/><path fill="#f8f9f9" d="m37.9 23.1-1.07 1.07a4 4 0 0 1-5.66 0L30.1 23.1l.9-.1v-3.16a4.46 4.46 0 0 0 6 0V23Z"/><path fill="#bec6c6" d="M20 6.85V9c-1.6 0-2.82.18-4-1-3.37 1.11-4.16 1-8 1V6.39A4.38 4.38 0 0 1 12.39 2h2.76a3 3 0 0 1 2.68 1.66L18 4l.34.17A3 3 0 0 1 20 6.85Z"/><path fill="#f8f9f9" d="M19 9v4a5 5 0 0 1-10 0V9a16.87 16.87 0 0 0 7-1 3.41 3.41 0 0 0 2.41 1Z"/><path fill="#f8f9f9" d="m17.9 20.1-1.07 1.07a4 4 0 0 1-5.66 0L10.1 20.1l.9-.1v-3a5 5 0 0 0 6 0v3Z"/><path fill="#bec6c6" d="M25.87 23.57a4 4 0 0 0-3.87 4V46H2V24.58a4 4 0 0 1 3.56-4l4.54-.5 1.07 1.07a4 4 0 0 0 5.66 0l1.07-1.05 4.54.5a4 4 0 0 1 3.43 2.97Z"/><path fill="#f8f9f9" d="m16.91 39.16-.57.71a3 3 0 0 1-4.68 0l-.57-.71L12 39v-2.54a4 4 0 0 0 4 0V39Z"/><path fill="#f8f9f9" d="M22 42.54V46H6v-3.46a3 3 0 0 1 2.51-3l2.58-.42.57.71a3 3 0 0 0 4.68 0l.57-.71c.22 0-.18 0 2.58.42a3 3 0 0 1 2.51 3zM18 33a4 4 0 0 1-8 0v-2a4 4 0 0 1 6.83-2.83C18.23 29.59 18 31 18 33z"/><path fill="#f8f9f9" d="M2 32h4v14H2zM46 27.58V46H22V27.58a4 4 0 0 1 3.56-4l4.54-.5 1.07 1.07a4 4 0 0 0 5.66 0l1.07-1.05 4.54.5A4 4 0 0 1 46 27.58Z"/><path fill="#f8f9f9" d="M22 35h4v11h-4z"/><path fill="#414141" d="M20 10c-1.65 0-2.85.15-4.22-.87-3 1-4.75.87-7.78.87a1 1 0 0 1-1-1V6.39A5.4 5.4 0 0 1 12.39 1h2.76a4 4 0 0 1 3.57 2.21l.07.07A4 4 0 0 1 21 6.85V9a1 1 0 0 1-1 1Zm-4-3a1 1 0 0 1 .71.29 2.43 2.43 0 0 0 1.7.71H19V6.85a2 2 0 0 0-1.11-1.78c-.64-.33-.61-.28-1-1A2 2 0 0 0 15.15 3h-2.76A3.39 3.39 0 0 0 9 6.39V8a16.55 16.55 0 0 0 6-.72c.77-.28.8-.28 1-.28Z"/><path fill="#414141" d="M14 19a6 6 0 0 1-6-6V9a1 1 0 0 1 2 0v4a4 4 0 0 0 8 0V9a1 1 0 0 1 2 0v4a6 6 0 0 1-6 6Z"/><path fill="#414141" d="M2 47a1 1 0 0 1-1-1V24.58a5 5 0 0 1 4.45-5L10 19.1V17a1 1 0 0 1 2 0v3a1 1 0 0 1-.89 1l-5.44.6a3 3 0 0 0-2.67 3V46a1 1 0 0 1-1 1zm24 0a1 1 0 0 1-1-1V30a1 1 0 0 1 2 0v16a1 1 0 0 1-1 1zm-.13-22.43a1 1 0 0 1-1-.75 3 3 0 0 0-2.57-2.23L16.89 21a1 1 0 0 1-.89-1v-3a1 1 0 0 1 2 0v2.11l4.54.5a5 5 0 0 1 4.29 3.71 1 1 0 0 1-.96 1.25z"/><path fill="#414141" d="M14 23.34c-2.35 0-3.44-1.37-4.61-2.53a1 1 0 0 1 1.42-1.42l1.07 1.07a3 3 0 0 0 4.24 0l1.07-1.07a1 1 0 0 1 1.42 1.42c-1.26 1.25-2.29 2.53-4.61 2.53zM6 47a1 1 0 0 1-1-1v-3.46a4 4 0 0 1 3.35-3.95l2.65-.43v-1.7a1 1 0 0 1 2 0V39a1 1 0 0 1-.83 1l-3.5.58a2 2 0 0 0-1.67 2V46a1 1 0 0 1-1 1zm16 0a1 1 0 0 1-1-1v-3.46a2 2 0 0 0-1.67-2l-3.5-.54a1 1 0 0 1-.83-1v-2.54a1 1 0 0 1 2 0v1.7l2.65.43A4 4 0 0 1 23 42.54V46a1 1 0 0 1-1 1z"/><path fill="#414141" d="M14 38a5 5 0 0 1-5-5v-2a5 5 0 0 1 10 0v2a5 5 0 0 1-5 5zm0-10a3 3 0 0 0-3 3v2a3 3 0 0 0 6 0v-2a3 3 0 0 0-3-3zM6 43a1 1 0 0 1-1-1V27a1 1 0 0 1 2 0v15a1 1 0 0 1-1 1z"/><path fill="#414141" d="M6 33H2a1 1 0 0 1 0-2h4a1 1 0 0 1 0 2zm4 14a1 1 0 0 1-1-1v-2a1 1 0 0 1 2 0v2a1 1 0 0 1-1 1zm8 0a1 1 0 0 1-1-1v-2a1 1 0 0 1 2 0v2a1 1 0 0 1-1 1zm24-22.45a1 1 0 0 1-1-1V12a7 7 0 0 0-14 0v11.55a1 1 0 0 1-2 0V12a9 9 0 0 1 18 0v11.55a1 1 0 0 1-1 1z"/><path fill="#414141" d="M34 22a5.47 5.47 0 0 1-5.44-4.87l-.55-5A1 1 0 0 1 29 11h2.17a5.79 5.79 0 0 0 4.12-1.71 1 1 0 0 1 1.6.26l.11.21A2.22 2.22 0 0 0 39 11a1 1 0 0 1 1 1.11l-.55 5A5.47 5.47 0 0 1 34 22Zm-3.88-9 .43 3.91a3.47 3.47 0 0 0 6.9 0l.45-4.05a4.2 4.2 0 0 1-2.13-1.35A8.44 8.44 0 0 1 30.12 13Z"/><path fill="#414141" d="M22 47a1 1 0 0 1-1-1V27.58a5 5 0 0 1 4.45-5L30 22.1v-2.26a1 1 0 0 1 2 0V23a1 1 0 0 1-.89 1l-5.44.6a3 3 0 0 0-2.67 3V46a1 1 0 0 1-1 1zm24-15a1 1 0 0 1-1-1v-3.42a3 3 0 0 0-2.67-3L36.89 24a1 1 0 0 1-.89-1v-3.16a1 1 0 0 1 2 0v2.27l4.54.5a5 5 0 0 1 4.45 5V31a1 1 0 0 1-.99 1z"/><path fill="#414141" d="M34 26.34c-2.35 0-3.44-1.37-4.61-2.53a1 1 0 0 1 1.42-1.42l1.07 1.07a3 3 0 0 0 4.24 0l1.07-1.07a1 1 0 0 1 1.42 1.42c-1.26 1.25-2.29 2.53-4.61 2.53zM42 36a1 1 0 0 1-1-1v-5a1 1 0 0 1 2 0v5a1 1 0 0 1-1 1zm-16 0h-4a1 1 0 0 1 0-2h4a1 1 0 0 1 0 2z"/><path fill="#6457ff" d="M47 35v4.92A7.18 7.18 0 0 1 41 47a7.18 7.18 0 0 1-6-7.08V35a3.25 3.25 0 0 0 3-2h6l.11.21A3.22 3.22 0 0 0 47 35Z"/><path fill="#f8f9f9" d="M40 43c-.54 0-.57-.15-2.71-2.29a1 1 0 0 1 1.42-1.42l1.29 1.3 3.29-3.3a1 1 0 0 1 1.42 1.42l-4 4A1 1 0 0 1 40 43Z"/><path fill="#414141" d="m10.88 40.49-.57-.7a1 1 0 1 1 1.56-1.26l.57.71a2 2 0 0 0 3.12 0l.57-.72a1 1 0 0 1 1.56 1.26l-.57.71a4 4 0 0 1-6.24 0Z"/></svg>